<svg id="Layer_1" enable-background="new 0 0 512 512" height="512" viewBox="0 0 512 512" width="512" xmlns="http://www.w3.org/2000/svg"><ellipse cx="445.084" cy="66.057" rx="65.918" ry="66.057"/><path d="m359.396 370.362h42.405v42.494h-42.405z"/><path d="m282.207 139.243c8.225-7.312 18.81-11.338 29.804-11.338s21.579 4.027 29.804 11.338l11.819 10.506v-37.537c0-61.791-50.165-112.061-111.827-112.061-54.012 0-99.202 38.573-109.583 89.673 16.979 25.843 46.735 76.358 59.462 129.889z"/><path d="m497.029 481.804h-20.677v-142.746l9.744 8.662c2.85 2.534 6.397 3.78 9.929 3.779 4.133 0 8.247-1.705 11.205-5.047 5.487-6.198 4.921-15.68-1.265-21.178l-43.887-39.013v-77.75c0-8.285-6.703-15.002-14.971-15.002s-14.971 6.717-14.971 15.002v51.133l-110.192-97.956c-5.669-5.039-14.201-5.039-19.869 0l-184.02 163.585c-6.185 5.498-6.751 14.98-1.265 21.178 5.487 6.199 14.95 6.765 21.134 1.267l9.744-8.662v142.746h-48.316v-65.45c6.395-1.959 12.549-5.175 18.376-9.584v-26.458c-8.949-2.107-17.131-6.938-23.335-13.946-16.433-18.564-14.732-47.066 3.792-63.535l67.572-60.068c-11.374-72.714-66.72-148.528-69.334-152.074-2.823-3.828-7.291-6.087-12.041-6.087s-9.218 2.259-12.041 6.087c-2.915 3.953-71.378 97.723-71.378 176.884 0 38.637 7.689 75.197 21.651 102.945 12.316 24.477 28.579 40.266 46.797 45.837v65.451h-54.44c-8.268 0-14.971 6.717-14.971 15.002s6.703 15.002 14.971 15.194h461.382 20.677c8.268-.192 14.971-6.909 14.971-15.194s-6.704-15.002-14.972-15.002zm-167.575-126.444c0-8.285 6.703-15.002 14.971-15.002h72.347c8.268 0 14.971 6.717 14.971 15.002v72.499c0 8.285-6.703 15.002-14.971 15.002h-72.347c-8.268 0-14.971-6.717-14.971-15.002zm-81.979 126.444v-111.442h-29.942v111.442h-29.941v-126.444c0-8.286 6.703-15.002 14.971-15.002h59.883c8.268 0 14.971 6.717 14.971 15.002v126.444z"/></svg>