<svg height="682pt" viewBox="-21 -68 682.66669 682" width="682pt" xmlns="http://www.w3.org/2000/svg"><path d="m590.625 237.089844v-106.25h-164.691406l60.691406-116.324219-33.25-17.347656-69.742188 133.671875h-127.265624l-69.742188-133.671875-33.25 17.347656 60.691406 116.328125h-164.691406v106.25h-49.375v200h49.375v106.25h541.25v-106.25h49.375v-200h-49.375zm-426.875 25c0-20.710938 16.789062-37.5 37.5-37.5s37.5 16.789062 37.5 37.5c0 20.710937-16.789062 37.5-37.5 37.5s-37.5-16.789063-37.5-37.5zm275 187.5h-237.5v-75h237.5zm0-150c-20.710938 0-37.5-16.789063-37.5-37.5 0-20.710938 16.789062-37.5 37.5-37.5s37.5 16.789062 37.5 37.5c0 20.710937-16.789062 37.5-37.5 37.5zm0 0"/></svg>