<svg height="472pt" viewBox="-3 0 471 472" width="472pt" xmlns="http://www.w3.org/2000/svg"><path d="m72.5 264h16v40h-16zm0 0" fill="#b3b3b3"/><path d="m128.5 312h-96c-4.417969 0-8-3.582031-8-8v-32c0-4.417969 3.582031-8 8-8h24v16h-16v16h80v-16h-16v-16h24c4.417969 0 8 3.582031 8 8v32c0 4.417969-3.582031 8-8 8zm0 0" fill="#808080"/><path d="m48.5 8h64v88h-64zm0 0" fill="#b3b3b3"/><path d="m.5 296h160v176h-160zm0 0" fill="#b3b3b3"/><path d="m320.5 104h144v368h-144zm0 0" fill="#a1d4db"/><path d="m320.5 104h144v112h-144zm0 0" fill="#6cbbc7"/><path d="m344.5 144h16v32h-16zm0 0" fill="#e6e6e6"/><path d="m344.5 256h16v32h-16zm0 0" fill="#e6e6e6"/><path d="m.5 296h160v48h-160zm0 0" fill="#e6e6e6"/><path d="m32.5 312c4.417969 0 8 3.582031 8 8s-3.582031 8-8 8-8-3.582031-8-8 3.582031-8 8-8zm0 0" fill="#b3b3b3"/><path d="m64.5 312c4.417969 0 8 3.582031 8 8s-3.582031 8-8 8-8-3.582031-8-8 3.582031-8 8-8zm0 0" fill="#b3b3b3"/><path d="m96.5 312c4.417969 0 8 3.582031 8 8s-3.582031 8-8 8-8-3.582031-8-8 3.582031-8 8-8zm0 0" fill="#b3b3b3"/><path d="m128.5 312c4.417969 0 8 3.582031 8 8s-3.582031 8-8 8-8-3.582031-8-8 3.582031-8 8-8zm0 0" fill="#b3b3b3"/><path d="m.5 144h160v-24l-32-32h-96l-32 32zm0 0" fill="#e6e6e6"/><path d="m32.5 376h96v64h-96zm0 0" fill="#ffe9cc"/><path d="m160.5 296h160v56h-160zm0 0" fill="#ffdaaa"/><path d="m160.5 344h80v128h-80zm0 0" fill="#e6e6e6"/><path d="m240.5 344h80v128h-80zm0 0" fill="#b3b3b3"/><g fill="#808080"><path d="m224.5 312h32v16h-32zm0 0"/><path d="m200.5 392h16v32h-16zm0 0"/><path d="m264.5 392h16v32h-16zm0 0"/><path d="m200.5 0h16v168h-16zm0 0"/><path d="m256.5 0h16v104h-16zm0 0"/></g><path d="m184.5 192v-8c0-13.253906 10.746094-24 24-24s24 10.746094 24 24v8zm0 0" fill="#ff421d"/><path d="m240.5 128v-8c0-13.253906 10.746094-24 24-24s24 10.746094 24 24v8zm0 0" fill="#ff421d"/></svg>