<svg height="512pt" viewBox="0 0 512 512.00002" width="512pt" xmlns="http://www.w3.org/2000/svg"><path d="m503.171875 0h-494.34375c-4.875 0-8.828125 3.953125-8.828125 8.828125v61.792969c0 4.875 3.953125 8.828125 8.828125 8.828125h26.480469l-27.761719 48.550781c-1.578125 2.734375-1.574219 6.101562.003906 8.835938 1.582031 2.730468 4.503907 4.410156 7.660157 4.40625h20.097656l-27.761719 48.550781c-1.578125 2.734375-1.574219 6.101562.003906 8.835937 1.582031 2.730469 4.503907 4.410156 7.660157 4.40625h20.097656l-27.761719 48.550782c-1.578125 2.734374-1.574219 6.101562.003906 8.835937 1.582031 2.730469 4.503907 4.410156 7.660157 4.40625h20.097656l-27.761719 48.550781c-1.578125 2.734375-1.574219 6.101563.003906 8.835938 1.582031 2.730468 4.503907 4.410156 7.660157 4.40625h20.097656l-27.761719 48.550781c-1.578125 2.734375-1.574219 6.101563.003906 8.835937 1.582031 2.730469 4.503907 4.414063 7.660157 4.40625h20.097656l-27.761719 48.550782c-1.578125 2.734375-1.574219 6.101562.003906 8.835937 1.582031 2.730469 4.503907 4.414063 7.660157 4.40625h20.097656l-27.761719 48.550781c-1.578125 2.734376-1.574219 6.105469.003906 8.835938 1.582031 2.734375 4.503907 4.414062 7.660157 4.40625h481.578124c3.15625.007812 6.078126-1.671875 7.660157-4.40625 1.578125-2.730469 1.582031-6.101562.003906-8.835938l-27.761719-48.550781h20.097656c3.15625.007813 6.078126-1.675781 7.660157-4.40625 1.578125-2.734375 1.582031-6.101562.003906-8.835937l-27.761719-48.550782h20.097656c3.15625.007813 6.078126-1.675781 7.660157-4.40625 1.578125-2.734374 1.582031-6.101562.003906-8.835937l-27.761719-48.550781h20.097656c3.15625.003906 6.078126-1.675782 7.660157-4.40625 1.578125-2.734375 1.582031-6.101563.003906-8.835938l-27.761719-48.550781h20.097656c3.15625.003906 6.078126-1.675781 7.660157-4.40625 1.578125-2.734375 1.582031-6.101563.003906-8.835937l-27.761719-48.550782h20.097656c3.15625.003906 6.078126-1.675781 7.660157-4.40625 1.578125-2.734375 1.582031-6.101562.003906-8.835937l-27.761719-48.550781h20.097656c3.15625.003906 6.078126-1.675782 7.660157-4.40625 1.578125-2.734376 1.582031-6.101563.003906-8.835938l-27.761719-48.550781h26.480469c4.875 0 8.828125-3.953125 8.828125-8.828125v-61.792969c0-4.875-3.953125-8.828125-8.828125-8.828125zm0 0" fill="#bdc3c7"/><path d="m496.789062 141.242188h-481.578124c-3.15625.003906-6.078126-1.675782-7.660157-4.40625-1.578125-2.734376-1.582031-6.101563-.003906-8.835938l27.761719-48.550781h441.382812l27.761719 48.550781c1.578125 2.734375 1.574219 6.101562-.003906 8.835938-1.582031 2.730468-4.503907 4.410156-7.660157 4.40625zm0 0" fill="#af8066"/><path d="m496.789062 203.035156h-481.578124c-3.15625.003906-6.078126-1.675781-7.660157-4.40625-1.578125-2.734375-1.582031-6.101562-.003906-8.835937l27.761719-48.550781h441.382812l27.761719 48.550781c1.578125 2.734375 1.574219 6.101562-.003906 8.835937-1.582031 2.730469-4.503907 4.410156-7.660157 4.40625zm0 0" fill="#7f5b53"/><path d="m496.789062 264.828125h-481.578124c-3.15625.003906-6.078126-1.675781-7.660157-4.40625-1.578125-2.734375-1.582031-6.101563-.003906-8.835937l27.761719-48.550782h441.382812l27.761719 48.550782c1.578125 2.734374 1.574219 6.101562-.003906 8.835937-1.582031 2.730469-4.503907 4.410156-7.660157 4.40625zm0 0" fill="#af8066"/><path d="m496.789062 326.621094h-481.578124c-3.15625.003906-6.078126-1.675782-7.660157-4.40625-1.578125-2.734375-1.582031-6.101563-.003906-8.835938l27.761719-48.550781h441.382812l27.761719 48.550781c1.578125 2.734375 1.574219 6.101563-.003906 8.835938-1.582031 2.730468-4.503907 4.410156-7.660157 4.40625zm0 0" fill="#7f5b53"/><path d="m496.789062 388.414062h-481.578124c-3.15625.007813-6.078126-1.675781-7.660157-4.40625-1.578125-2.734374-1.582031-6.101562-.003906-8.835937l27.761719-48.550781h441.382812l27.761719 48.550781c1.578125 2.734375 1.574219 6.101563-.003906 8.835937-1.582031 2.730469-4.503907 4.414063-7.660157 4.40625zm0 0" fill="#af8066"/><path d="m496.789062 450.207031h-481.578124c-3.15625.007813-6.078126-1.675781-7.660157-4.40625-1.578125-2.734375-1.582031-6.101562-.003906-8.835937l27.761719-48.550782h441.382812l27.761719 48.550782c1.578125 2.734375 1.574219 6.101562-.003906 8.835937-1.582031 2.730469-4.503907 4.414063-7.660157 4.40625zm0 0" fill="#7f5b53"/><path d="m496.789062 512h-481.578124c-3.15625.007812-6.078126-1.671875-7.660157-4.40625-1.578125-2.730469-1.582031-6.101562-.003906-8.835938l27.761719-48.550781h441.382812l27.761719 48.550781c1.578125 2.734376 1.574219 6.105469-.003906 8.835938-1.582031 2.734375-4.503907 4.414062-7.660157 4.40625zm0 0" fill="#af8066"/><path d="m97.101562 79.449219h35.3125v432.550781h-35.3125zm0 0" fill="#95a5a5"/><path d="m379.585938 79.449219h35.3125v432.550781h-35.3125zm0 0" fill="#95a5a5"/><path d="m450.207031 300.136719c-4.875 0-8.828125-3.949219-8.828125-8.828125v-211.859375c0-4.875 3.953125-8.828125 8.828125-8.828125s8.828125 3.953125 8.828125 8.828125v211.859375c0 4.878906-3.953125 8.828125-8.828125 8.828125zm0 0" fill="#ecf0f1"/><path d="m8.828125 0h494.34375c4.875 0 8.828125 3.953125 8.828125 8.828125v61.792969c0 4.875-3.953125 8.828125-8.828125 8.828125h-494.34375c-4.875 0-8.828125-3.953125-8.828125-8.828125v-61.792969c0-4.875 3.953125-8.828125 8.828125-8.828125zm0 0" fill="#bdc3c7"/><g fill="#95a5a5"><path d="m52.964844 52.964844h-17.65625c-4.875 0-8.824219-3.953125-8.824219-8.828125s3.949219-8.828125 8.824219-8.828125h17.65625c4.875 0 8.828125 3.953125 8.828125 8.828125s-3.953125 8.828125-8.828125 8.828125zm0 0"/><path d="m141.242188 52.964844h-52.964844c-4.875 0-8.828125-3.953125-8.828125-8.828125s3.953125-8.828125 8.828125-8.828125h52.964844c4.875 0 8.828124 3.953125 8.828124 8.828125s-3.953124 8.828125-8.828124 8.828125zm0 0"/></g></svg>