<svg id="Capa_1" enable-background="new 0 0 512 512" height="512" viewBox="0 0 512 512" width="512" xmlns="http://www.w3.org/2000/svg"><g><g><g><path d="m501.698 391.773h-491.396c-5.69 0-10.302-4.613-10.302-10.302v-334.185c0-5.69 4.612-10.302 10.302-10.302h491.396c5.69 0 10.302 4.612 10.302 10.302v334.185c0 5.689-4.612 10.302-10.302 10.302z" fill="#fdf6ed"/><path d="m66 69.949h364v288.863h-364z" fill="#c9f0fd"/><g fill="#dff6fd"><path d="m66 69.947v151.667l151.667-151.667z"/><path d="m431.141 154.968-203.832 203.842h-34.253l203.832-203.842z"/><path d="m454.928 69.947-288.873 288.863h-72.782l288.873-288.863z"/></g><g><path d="m149.891 69.947s-14.474 97.465-63.552 161.646h-53.373v-151.344c0-5.69 4.612-10.302 10.302-10.302z" fill="#fb6672"/><path d="m149.891 69.947s-14.474 97.465-63.552 161.646h-53.373v-29.206c69.568-37.54 85.247-102.132 88.74-132.44z" fill="#fb4a59"/><path d="m122.653 448.736c.124 5.759-4.543 10.487-10.302 10.487h-26.012v5.491c0 5.687-4.615 10.302-10.302 10.302h-32.77c-5.687 0-10.302-4.615-10.302-10.302v-216.338h53.374s4.141 11.466 9.622 30.885c10.271 36.345 25.271 100.545 26.692 169.475z" fill="#fb6672"/><path d="m95.961 279.261c-1.02.34-2.112.525-3.245.525h-59.75v-31.41h53.374c-.001 0 4.141 11.466 9.621 30.885z" fill="#fb4a59"/><path d="m122.653 448.736c.124 5.759-4.543 10.487-10.302 10.487h-26.012v5.491c0 5.687-4.615 10.302-10.302 10.302h-32.77c-5.687 0-10.302-4.615-10.302-10.302v-41.671c49.881-54.167 41.145-145.091 36.685-174.667h16.689s34.141 94.622 36.314 200.36z" fill="#fb4a59"/><path d="m101.792 459.223h-15.453c0-26.156-1.566-54.064-4.667-82.961-.453-4.244 2.617-8.056 6.861-8.509s8.046 2.617 8.509 6.861c3.153 29.443 4.75 57.907 4.75 84.609z" fill="#f82f40"/><path d="m92.716 262.541h-59.75v-47.581h59.751c5.69 0 10.302 4.612 10.302 10.302v26.977c-.001 5.689-4.613 10.302-10.303 10.302z" fill="#ffd3d7"/></g><g><path d="m479.034 80.249v151.344h-53.374c-7.654-10.013-14.474-20.841-20.531-31.987-32.708-60.245-43.02-129.658-43.02-129.658h106.624c5.689-.001 10.301 4.611 10.301 10.301z" fill="#fb6672"/><path d="m479.034 80.249v151.344h-53.374c-7.654-10.013-14.474-20.841-20.531-31.987 42.361-38.323 47.656-100.958 47.677-129.658h15.927c5.689-.001 10.301 4.611 10.301 10.301z" fill="#fb4a59"/><path d="m479.034 248.376v216.338c0 5.687-4.615 10.302-10.302 10.302h-32.77c-5.687 0-10.302-4.615-10.302-10.302v-5.491h-26.012c-5.759 0-10.425-4.729-10.302-10.487.165-8.18.525-16.287 1.051-24.292 3.863-59.472 16.586-113.145 25.641-145.183 5.481-19.419 9.622-30.885 9.622-30.885z" fill="#fb6672"/><g fill="#fb4a59"><path d="m479.034 248.376v31.41h-59.751c-1.133 0-2.225-.186-3.245-.525 5.481-19.419 9.622-30.885 9.622-30.885z"/><path d="m479.034 248.376v216.338c0 5.687-4.615 10.302-10.302 10.302h-32.77c-5.687 0-10.302-4.615-10.302-10.302v-5.491h-26.012c-5.759 0-10.425-4.729-10.302-10.487.165-8.18.525-16.287 1.051-24.292 8.046-4.492 15.205-9.725 21.572-15.535 6.469-5.893 12.115-12.383 17.029-19.275 34.666-48.439 33.852-116.884 32.276-141.258z"/><path d="m430.327 376.263c-.484 4.481-.927 8.942-1.329 13.372-4.914 6.892-10.559 13.382-17.029 19.275.742-11.249 1.741-22.695 2.987-34.295.464-4.244 4.286-7.314 8.509-6.861 4.246.453 7.315 4.264 6.862 8.509z"/></g><path d="m428.998 389.634c-2.225 24.147-3.338 47.491-3.338 69.589h-15.453c0-16.184.587-33.007 1.762-50.314 6.47-5.893 12.115-12.383 17.029-19.275z" fill="#f82f40"/><path d="m419.284 262.541h59.751v-47.581h-59.751c-5.69 0-10.302 4.612-10.302 10.302v26.977c0 5.689 4.612 10.302 10.302 10.302z" fill="#ffd3d7"/></g></g></g><path d="m248.274 69.949h15.453v288.863h-15.453z" fill="#fdf6ed"/></g></svg>