<svg height="511pt" viewBox="0 -107 511.99984 511" width="511pt" xmlns="http://www.w3.org/2000/svg"><g fill="#60364e"><path d="m190.734375 254.796875c-4.140625 0-7.5-3.359375-7.5-7.5v-201.960937c0-4.140626 3.359375-7.5 7.5-7.5 4.144531 0 7.5 3.359374 7.5 7.5v201.960937c0 4.140625-3.355469 7.5-7.5 7.5zm0 0"/><path d="m146.277344 254.796875c-4.140625 0-7.5-3.359375-7.5-7.5v-169.117187c0-4.140626 3.359375-7.5 7.5-7.5 4.144531 0 7.5 3.359374 7.5 7.5v169.117187c0 4.140625-3.355469 7.5-7.5 7.5zm0 0"/><path d="m101.820312 254.796875c-4.140624 0-7.5-3.359375-7.5-7.5v-143.660156c0-4.144531 3.359376-7.5 7.5-7.5 4.144532 0 7.5 3.355469 7.5 7.5v143.660156c0 4.140625-3.355468 7.5-7.5 7.5zm0 0"/><path d="m321.265625 254.796875c-4.144531 0-7.5-3.359375-7.5-7.5v-201.960937c0-4.140626 3.355469-7.5 7.5-7.5 4.140625 0 7.5 3.359374 7.5 7.5v201.960937c0 4.140625-3.359375 7.5-7.5 7.5zm0 0"/><path d="m365.722656 254.796875c-4.144531 0-7.5-3.359375-7.5-7.5v-169.117187c0-4.140626 3.355469-7.5 7.5-7.5 4.140625 0 7.5 3.359374 7.5 7.5v169.117187c0 4.140625-3.359375 7.5-7.5 7.5zm0 0"/><path d="m410.179688 254.796875c-4.144532 0-7.5-3.359375-7.5-7.5v-143.660156c0-4.144531 3.355468-7.5 7.5-7.5 4.140624 0 7.5 3.355469 7.5 7.5v143.660156c0 4.140625-3.359376 7.5-7.5 7.5zm0 0"/></g><path d="m59.628906 115.800781c-4.140625 0-7.5-3.359375-7.5-7.5 0-4.144531 3.359375-7.5 7.5-7.5 52.992188 0 69.835938-16.542969 87.671875-34.058593 17.621094-17.304688 35.84375-35.199219 85.625-35.199219 4.144531 0 7.5 3.359375 7.5 7.5s-3.355469 7.5-7.5 7.5c-43.648437 0-58.230469 14.320312-75.113281 30.902343-18.308594 17.980469-39.058594 38.355469-98.183594 38.355469zm0 0" fill="#804c68"/><path d="m452.371094 115.800781c-59.125 0-79.875-20.375-98.183594-38.355469-16.882812-16.582031-31.464844-30.902343-75.113281-30.902343-4.144531 0-7.5-3.355469-7.5-7.5 0-4.140625 3.355469-7.5 7.5-7.5 49.78125 0 68.003906 17.894531 85.625 35.199219 17.835937 17.515624 34.679687 34.058593 87.671875 34.058593 4.140625 0 7.5 3.359375 7.5 7.5s-3.359375 7.5-7.5 7.5zm0 0" fill="#804c68"/><path d="m17.09375 68.328125v226.992187c0 1.140626.925781 2.066407 2.070312 2.066407h40.464844v-229.058594zm0 0" fill="#fed89b"/><path d="m17.09375 68.328125h42.535156v24.824219h-42.535156zm0 0" fill="#eab875"/><path d="m.15625 44.410156 9.226562 22.632813c.316407.777343 1.074219 1.285156 1.914063 1.285156h54.3125c.75 0 1.4375-.402344 1.804687-1.050781l12.75-22.632813c.777344-1.378906-.21875-3.085937-1.800781-3.085937h-76.292969c-1.46875 0-2.46875 1.492187-1.914062 2.851562zm0 0" fill="#aa7d95"/><path d="m78.363281 41.558594h-23.789062c1.46875 0 2.46875 1.492187 1.914062 2.851562l-9.222656 22.632813c-.320313.777343-1.074219 1.285156-1.917969 1.285156h23.789063c.839843 0 1.597656-.507813 1.914062-1.285156l9.226563-22.632813c.554687-1.359375-.445313-2.851562-1.914063-2.851562zm0 0" fill="#804c68"/><path d="m511.84375 44.410156-9.226562 22.632813c-.316407.777343-1.074219 1.285156-1.914063 1.285156h-54.3125c-.75 0-1.4375-.402344-1.804687-1.050781l-12.75-22.632813c-.777344-1.378906.21875-3.085937 1.800781-3.085937h76.292969c1.46875 0 2.46875 1.492187 1.914062 2.851562zm0 0" fill="#aa7d95"/><path d="m509.929688 41.558594h-23.789063c1.46875 0 2.472656 1.492187 1.917969 2.851562l-9.226563 22.632813c-.316406.777343-1.074219 1.285156-1.917969 1.285156h23.789063c.839844 0 1.597656-.507813 1.914063-1.285156l9.226562-22.632813c.554688-1.359375-.445312-2.851562-1.914062-2.851562zm0 0" fill="#804c68"/><path d="m58.894531 21.03125c0 11.335938-9.191406 20.527344-20.53125 20.527344-11.339843 0-20.53125-9.191406-20.53125-20.527344 0-11.339844 9.191407-20.53125 20.53125-20.53125 11.339844 0 20.53125 9.191406 20.53125 20.53125zm0 0" fill="#d0adad"/><path d="m494.167969 21.03125c0 11.335938-9.191407 20.527344-20.53125 20.527344-11.339844 0-20.53125-9.191406-20.53125-20.527344 0-11.339844 9.191406-20.53125 20.53125-20.53125 11.339843 0 20.53125 9.191406 20.53125 20.53125zm0 0" fill="#d0adad"/><path d="m59.628906 247.296875h173.296875v50.089844h-173.296875zm0 0" fill="#d0adad"/><path d="m59.628906 247.296875h22.285156v50.089844h-22.285156zm0 0" fill="#bc8080"/><path d="m279.074219 247.296875h173.296875v50.089844h-173.296875zm0 0" fill="#d0adad"/><path d="m279.074219 247.296875h22.285156v50.089844h-22.285156zm0 0" fill="#bc8080"/><path d="m256.066406 23.988281v273.398438h-23.140625v-263.242188c0-5.609375 4.546875-10.15625 10.15625-10.15625zm0 0" fill="#aa7d95"/><path d="m255.933594 23.988281v273.398438h23.140625v-263.242188c0-5.609375-4.546875-10.15625-10.15625-10.15625zm0 0" fill="#aa7d95"/><path d="m494.90625 68.328125v226.992187c0 1.140626-.925781 2.066407-2.070312 2.066407h-40.464844v-229.058594zm0 0" fill="#fed89b"/><path d="m452.371094 68.328125h42.535156v24.824219h-42.535156zm0 0" fill="#eab875"/><path d="m255.933594 23.988281h-5.066406v273.398438h10.132812v-273.398438zm0 0" fill="#804c68"/></svg>