<svg id="Layer_1" enable-background="new 0 0 510 510" height="512" viewBox="0 0 510 510" width="512" xmlns="http://www.w3.org/2000/svg"><g><path d="m120 480h-45l-15-60 45.667-10 59.333 10z" fill="#074f67"/><path d="m390 480h22.5 22.5l7.5-30 7.5-30-52.5-10-52.5 10 22.5 30z" fill="#053748"/><path d="m0 270v75 75h127.5 127.5l10-75-10-75h-127.5z" fill="#096887"/><path d="m510 270h-127.5-127.5v75 75h127.5 127.5v-75z" fill="#074f67"/><path d="m135 150c0 33.137 13.432 63.137 35.147 84.853 21.716 21.715 51.716 35.147 84.853 35.147l15-120-15-120c-33.137 0-63.137 13.432-84.853 35.147-21.715 21.716-35.147 51.716-35.147 84.853z" fill="#e7f1f9"/><path d="m375 150c0-33.137-13.432-63.137-35.148-84.853-21.715-21.715-51.715-35.147-84.852-35.147v120 120c33.137 0 63.137-13.432 84.852-35.147 21.716-21.716 35.148-51.716 35.148-84.853z" fill="#d5e7f6"/><path d="m225 150c0 8.284 3.357 15.784 8.787 21.213 5.429 5.43 12.929 8.787 21.213 8.787l10-30-10-30c-8.284 0-15.784 3.357-21.213 8.787-5.43 5.429-8.787 12.929-8.787 21.213z" fill="#ffef4a"/><path d="m285 150c0-8.284-3.357-15.784-8.787-21.213-5.429-5.43-12.929-8.787-21.213-8.787v30 30c8.284 0 15.784-3.357 21.213-8.787 5.43-5.429 8.787-12.929 8.787-21.213z" fill="#ffcb00"/><g><g><path d="m60 330h195v30h-195z" fill="#ffef4a"/></g></g><g><g><path d="m360 360h15 15v-15-15h-15-15v15z" fill="#ffcb00"/></g></g><g><g><path d="m420 360h15 15v-15-15h-15-15v15z" fill="#ffcb00"/></g></g></g></svg>