<?xml version="1.0" encoding="iso-8859-1"?>
<!-- Generator: Adobe Illustrator 21.0.0, SVG Export Plug-In . SVG Version: 6.00 Build 0)  -->
<svg xmlns="http://www.w3.org/2000/svg" xmlns:xlink="http://www.w3.org/1999/xlink" version="1.1" id="Capa_1" x="0px" y="0px" viewBox="0 0 510.623 510.623" style="enable-background:new 0 0 510.623 510.623;" xml:space="preserve" width="512" height="512">
<g>
	<path style="fill:#78777E;" d="M150.275,362.682H98.725c-2.095,0-4.094,0.876-5.514,2.416l-45.087,48.903   c-4.12,4.469-6.045,10.488-5.282,16.518s4.126,11.381,9.229,14.683c3.39,2.193,7.273,3.272,11.147,3.272   c4.826,0,9.635-1.675,13.444-4.958l78.509-67.651c2.375-2.047,3.227-5.354,2.135-8.293   C156.215,364.632,153.41,362.682,150.275,362.682z"/>
	<path style="fill:#78777E;" d="M462.499,414.001l-45.087-48.903c-1.42-1.54-3.419-2.416-5.514-2.416h-51.551   c-3.135,0-5.939,1.95-7.03,4.889c-1.092,2.939-0.24,6.246,2.135,8.293l78.509,67.651c3.81,3.283,8.617,4.958,13.444,4.958   c3.873,0,7.759-1.079,11.148-3.272c5.102-3.302,8.465-8.653,9.227-14.683C468.544,424.489,466.619,418.47,462.499,414.001z"/>
	<path style="fill:#66BAEA;" d="M503.123,62.15H7.5c-4.143,0-7.5,3.357-7.5,7.5v300.531c0,4.143,3.357,7.5,7.5,7.5h495.623   c4.143,0,7.5-3.357,7.5-7.5V69.65C510.623,65.508,507.266,62.15,503.123,62.15z"/>
	<path style="fill:#67676B;" d="M446.993,397.182l-29.581-32.084c-1.42-1.54-3.419-2.416-5.514-2.416h-51.551   c-3.135,0-5.939,1.95-7.03,4.889c-1.092,2.939-0.24,6.246,2.135,8.293l24.74,21.319H446.993z"/>
	<path style="fill:#67676B;" d="M130.431,397.182l24.74-21.319c2.375-2.047,3.227-5.354,2.135-8.293   c-1.091-2.939-3.896-4.889-7.03-4.889H98.725c-2.095,0-4.094,0.876-5.514,2.416L63.63,397.182H130.431z"/>
	<path style="fill:#3AAAE4;" d="M503.123,62.15h-27v315.531h27c4.143,0,7.5-3.357,7.5-7.5V69.65   C510.623,65.508,507.266,62.15,503.123,62.15z"/>
	<path style="fill:#E0E0E0;" d="M0,325.509v44.673c0,4.143,3.357,7.5,7.5,7.5h495.623c4.143,0,7.5-3.357,7.5-7.5v-44.673H0z"/>
	<path style="fill:#C4C4C4;" d="M476.123,377.682h27c4.143,0,7.5-3.357,7.5-7.5v-44.673h-34.5V377.682z"/>
</g>















</svg>
