<?xml version="1.0" encoding="iso-8859-1"?>
<!-- Generator: Adobe Illustrator 19.0.0, SVG Export Plug-In . SVG Version: 6.00 Build 0)  -->
<svg version="1.1" id="Layer_1" xmlns="http://www.w3.org/2000/svg" xmlns:xlink="http://www.w3.org/1999/xlink" x="0px" y="0px"
	 viewBox="0 0 512 512" style="enable-background:new 0 0 512 512;" xml:space="preserve">
<g>
	<path style="fill:#6F6F87;" d="M512,102.049c0-12.49-10.126-22.616-22.616-22.616h-71.413c-12.49,0-22.616,10.126-22.616,22.616
		v236.71c0,5.642,1.628,10.901,4.431,15.345l13.273,45.965h81.236l13.273-45.965c2.803-4.443,4.431-9.702,4.431-15.345v-236.71H512z
		"/>
	<path style="fill:#6F6F87;" d="M325.265,108.242c0-15.911-12.898-28.809-28.809-28.809H28.809C12.898,79.433,0,92.331,0,108.242
		v230.515c0,5.603,1.605,10.829,4.373,15.254l14.307,49.907h287.904l14.307-49.907c2.768-4.425,4.373-9.651,4.373-15.254V108.242
		H325.265z"/>
</g>
<path style="fill:#4C4C5C;" d="M0,338.758c0,15.911,12.898,28.809,28.809,28.809h267.647c15.911,0,28.809-12.898,28.809-28.809v65
	c0,15.911-12.898,28.809-28.809,28.809H28.809C12.898,432.567,0,419.669,0,403.758V338.758z"/>
<path style="opacity:0.1;enable-background:new    ;" d="M51.509,403.758V108.242c0-15.911,12.898-28.809,28.809-28.809H28.809
	C12.898,79.433,0,92.331,0,108.242v295.516c0,15.911,12.898,28.809,28.809,28.809h51.509
	C64.407,432.567,51.509,419.669,51.509,403.758z"/>
<path style="fill:#4C4C5C;" d="M424.165,432.567c-15.911,0-28.809-12.898-28.809-28.809v-65c0,15.911,12.898,28.809,28.809,28.809
	h59.026c15.911,0,28.809-12.898,28.809-28.809v65c0,15.911-12.898,28.809-28.809,28.809H424.165z"/>
<circle style="fill:#FF6465;" cx="258.524" cy="400.071" r="11.147"/>
<g>
	<circle style="fill:#3F3F4D;" cx="453.681" cy="131.616" r="11.147"/>
	<circle style="fill:#3F3F4D;" cx="453.681" cy="179.602" r="11.147"/>
	<circle style="fill:#3F3F4D;" cx="477.674" cy="155.609" r="11.147"/>
	<circle style="fill:#3F3F4D;" cx="429.689" cy="155.609" r="11.147"/>
</g>
<circle style="fill:#00DC82;" cx="213.711" cy="400.071" r="11.147"/>
<g>
	<path style="fill:#3F3F4D;" d="M162.633,293.447c-38.568,0-69.946-31.378-69.946-69.947s31.378-69.947,69.946-69.947
		c38.569,0,69.947,31.378,69.947,69.947C232.58,262.069,201.202,293.447,162.633,293.447z M162.633,169.005
		c-30.048,0-54.493,24.446-54.493,54.495s24.445,54.495,54.493,54.495s54.495-24.446,54.495-54.495S192.681,169.005,162.633,169.005
		z"/>
	<polygon style="fill:#3F3F4D;" points="183.812,223.5 145.583,247.727 145.583,199.272 	"/>
</g>
<g>
</g>
<g>
</g>
<g>
</g>
<g>
</g>
<g>
</g>
<g>
</g>
<g>
</g>
<g>
</g>
<g>
</g>
<g>
</g>
<g>
</g>
<g>
</g>
<g>
</g>
<g>
</g>
<g>
</g>
</svg>
