<svg height="512pt" viewBox="0 0 512.001 512" width="512pt" xmlns="http://www.w3.org/2000/svg"><path d="m394.667969 160c0-76.582031-62.082031-138.667969-138.667969-138.667969l-21.332031 256 21.332031 213.335938h138.667969zm0 0" fill="#12b0ff"/><path d="m256 21.335938c-76.582031 0-138.667969 62.082031-138.667969 138.664062v330.667969h138.667969zm0 0" fill="#36cff5"/><path d="m256 0-10.667969 21.332031 10.667969 234.667969h15v-225.144531c65.859375 7.472656 117.199219 63.519531 117.199219 131.34375v328.46875h30v-328.46875c0-89.4375-72.761719-162.199219-162.199219-162.199219zm0 0" fill="#ffc75c"/><path d="m93.800781 162.199219v328.46875h30v-328.46875c0-67.820313 51.339844-123.871094 117.199219-131.34375v225.144531h15v-256c-89.4375 0-162.199219 72.761719-162.199219 162.199219zm0 0" fill="#ffd99f"/><path d="m463 241h-207l-10.667969 143 10.667969 128h207zm-128.25 241h-63.75v-211h63.75l6.25 34-6.25 10.667969zm98.25 0h-68.25v-211h68.25zm0 0" fill="#c5d3dd"/><path d="m49 241v271h207v-271zm98.25 241h-68.25v-211h68.25zm30 0v-166.332031l-6.582031-6.335938 6.582031-38.332031h63.75v211zm0 0" fill="#d9e7ec"/><path d="m474.054688 207.394531c-8.160157-20.347656-28.09375-34.273437-50.679688-34.273437s-42.519531 13.925781-50.679688 34.273437c-22.207031 7.097657-37.945312 27.917969-37.945312 52 0 30.101563 24.492188 54.597657 54.597656 54.597657h68.054688c30.105468 0 54.597656-24.492188 54.597656-54.597657 0-24.082031-15.738281-44.902343-37.945312-52zm0 0" fill="#93bf00"/><path d="m512 315.667969h-177.25v-57.4375h177.25zm0 0" fill="#f04000"/><path d="m0 259.394531c0 30.101563 24.492188 54.597657 54.597656 54.597657h68.054688c30.105468 0 54.597656-24.492188 54.597656-54.597657 0-24.082031-15.738281-44.902343-37.945312-52-8.160157-20.347656-28.09375-34.273437-50.679688-34.273437s-42.519531 13.925781-50.679688 34.273437c-22.207031 7.097657-37.945312 27.917969-37.945312 52zm0 0" fill="#a8d32a"/><path d="m0 258.230469h177.25v57.4375h-177.25zm0 0" fill="#ff6200"/></svg>