<svg id="Layer_1" enable-background="new 0 0 512 512" height="512" viewBox="0 0 512 512" width="512" xmlns="http://www.w3.org/2000/svg"><g><g clip-rule="evenodd" fill-rule="evenodd"><path d="m320.291 418.045v-40.793c0-11.82-9.666-21.457-21.487-21.457h-255.462c-11.792 0-21.458 9.637-21.458 21.457v40.793z" fill="#80b4fb"/><path d="m320.291 418.045v-40.793c0-11.82-9.666-21.457-21.487-21.457h-29.991c11.792 0 21.458 9.637 21.458 21.457v40.793z" fill="#61a2f9"/><path d="m298.804 355.795v-67.637c0-11.82-9.667-21.457-21.459-21.457h-212.544c-11.792 0-21.459 9.666-21.459 21.457v67.637z" fill="#f5bc98"/><path d="m298.804 355.795v-67.637c0-11.82-9.667-21.457-21.459-21.457h-29.99c11.792 0 21.458 9.637 21.458 21.457v67.637z" fill="#e59b6c"/><path d="m266.602 355.795v-28.658c0-8.73-7.144-15.902-15.902-15.902h-34.044c-8.731 0-15.902 7.172-15.902 15.902v28.658zm-125.208 0v-28.658c0-8.73-7.172-15.902-15.902-15.902h-34.045c-8.73 0-15.902 7.172-15.902 15.902v28.658z" fill="#e9f5ff"/><path d="m266.602 355.795v-28.658c0-8.73-7.144-15.902-15.902-15.902h-29.991c8.73 0 15.903 7.172 15.903 15.902v28.658zm-125.208 0v-28.658c0-8.73-7.172-15.902-15.902-15.902h-29.991c8.731 0 15.903 7.172 15.903 15.902v28.658z" fill="#cbe2ff"/><path d="m6.01 496.141h330.155c3.288 0 5.98-2.723 5.98-6.01v-66.105c0-3.287-2.692-5.98-5.98-5.98h-330.155c-3.316 0-6.01 2.693-6.01 5.98v66.105c0 3.287 2.693 6.01 6.01 6.01z" fill="#d68756"/><path d="m306.146 496.141h30.02c3.288 0 5.98-2.723 5.98-6.01v-66.105c0-3.287-2.692-5.98-5.98-5.98h-30.02c3.317 0 6.01 2.693 6.01 5.98v66.105c-.001 3.287-2.693 6.01-6.01 6.01z" fill="#c47443"/><path d="m342.146 457.078v-33.053c0-3.287-2.692-5.98-5.98-5.98h-330.156c-3.316 0-6.01 2.693-6.01 5.98v33.053z" fill="#f5bc98"/><path d="m342.146 457.078v-33.053c0-3.287-2.692-5.98-5.98-5.98h-30.02c3.317 0 6.01 2.693 6.01 5.98v33.053z" fill="#e59b6c"/></g><path d="m446.943 302.105c0-4.139 3.374-7.483 7.513-7.483 4.138 0 7.482 3.344 7.482 7.483v53.689c0 4.139-3.345 7.482-7.482 7.482-4.139 0-7.513-3.344-7.513-7.482z" fill="#365e7d"/><path clip-rule="evenodd" d="m506.019 496.141h-103.125c-3.288 0-6.01-2.723-6.01-6.01v-128.356c0-3.287 2.722-5.98 6.01-5.98h103.125c3.288 0 5.981 2.693 5.981 5.98v128.355c0 3.288-2.693 6.011-5.981 6.011z" fill="#d68756" fill-rule="evenodd"/><path clip-rule="evenodd" d="m506.019 496.141h-30.019c3.316 0 6.01-2.723 6.01-6.01v-128.356c0-3.287-2.693-5.98-6.01-5.98h30.019c3.288 0 5.981 2.693 5.981 5.98v128.355c0 3.288-2.693 6.011-5.981 6.011z" fill="#c47443" fill-rule="evenodd"/><path clip-rule="evenodd" d="m396.884 406.565v-44.789c0-3.287 2.722-5.98 6.01-5.98h103.125c3.288 0 5.981 2.693 5.981 5.98v44.789z" fill="#f5bc98" fill-rule="evenodd"/><path clip-rule="evenodd" d="m476 355.795h30.019c3.288 0 5.981 2.693 5.981 5.98v44.789h-29.99v-44.789c0-3.287-2.694-5.98-6.01-5.98z" fill="#e59b6c" fill-rule="evenodd"/><path d="m472.06 441.459c0-4.139 3.345-7.512 7.483-7.512 4.139 0 7.512 3.373 7.512 7.512v19.785c0 4.139-3.373 7.512-7.512 7.512s-7.483-3.373-7.483-7.512z" fill="#365e7d"/><path clip-rule="evenodd" d="m425.032 208.73h58.848c3.288 0 5.981 2.693 5.981 5.982v81.412c0 3.289-2.693 5.98-5.981 5.98h-58.848c-3.289 0-6.01-2.691-6.01-5.98v-81.412c0-3.288 2.721-5.982 6.01-5.982z" fill="#dd636e" fill-rule="evenodd"/><path clip-rule="evenodd" d="m453.86 208.73h30.02c3.288 0 5.981 2.693 5.981 5.982v81.412c0 3.289-2.693 5.98-5.981 5.98h-30.02c3.316 0 6.01-2.691 6.01-5.98v-81.412c0-3.288-2.693-5.982-6.01-5.982z" fill="#da4a54" fill-rule="evenodd"/><path clip-rule="evenodd" d="m114.776 15.859h282.476c2.155 0 3.912 1.758 3.912 3.912v139.523c0 2.154-1.757 3.939-3.912 3.939h-282.476c-2.154 0-3.94-1.785-3.94-3.939v-139.523c0-2.154 1.786-3.912 3.94-3.912z" fill="#e9f5ff" fill-rule="evenodd"/><path clip-rule="evenodd" d="m401.164 159.324c0 2.154-1.757 3.91-3.912 3.91h-121.92l76.508-89.744c2.184-2.496 4.31-2.496 6.379 0l42.945 50.371z" fill="#95d6a4" fill-rule="evenodd"/><path clip-rule="evenodd" d="m208.038 163.234h-93.261c-2.154 0-3.94-1.785-3.94-3.939v-11.367l38.892-45.609c2.069-2.154 4.195-2.184 6.35 0z" fill="#95d6a4" fill-rule="evenodd"/><path clip-rule="evenodd" d="m350.196 163.234h-180.71l45.185-52.981 41.981-49.236c2.069-2.494 4.196-2.637 6.35 0l42.01 49.236z" fill="#ccf49f" fill-rule="evenodd"/><path clip-rule="evenodd" d="m186.976 81.652c10.517 0 19.078-8.561 19.078-19.076 0-10.488-8.561-19.078-19.078-19.078s-19.077 8.59-19.077 19.078c-.001 10.516 8.56 19.076 19.077 19.076z" fill="#ffe07d" fill-rule="evenodd"/><path clip-rule="evenodd" d="m340.02 87.352 61.145 71.687v-35.178l-42.946-50.371c-2.069-2.496-4.195-2.496-6.379 0z" fill="#78c2a4" fill-rule="evenodd"/><path clip-rule="evenodd" d="m244.831 74.879 75.375 88.356h29.99l-87.194-102.217c-2.154-2.637-4.281-2.494-6.35 0z" fill="#b3e59f" fill-rule="evenodd"/><path clip-rule="evenodd" d="m188.761 140.615-32.684-38.297c-2.154-2.184-4.28-2.154-6.35 0l-11.821 13.861 35.859 42.037z" fill="#78c2a4" fill-rule="evenodd"/><path d="m419.022 232.912h70.839v14.994h-70.839zm0 30.02h70.839v14.994h-70.839z" fill="#d82e3d"/></g></svg>