<svg height="512pt" viewBox="0 0 512 512" width="512pt" xmlns="http://www.w3.org/2000/svg"><path d="m497 0h-482c-8.402344 0-15 6.597656-15 15v482c0 8.398438 6.597656 15 15 15h482c8.402344 0 15-6.601562 15-15v-482c0-8.402344-6.597656-15-15-15zm0 0" fill="#ffd396"/><path d="m512 15v482c0 8.398438-6.597656 15-15 15h-332v-512h332c8.402344 0 15 6.597656 15 15zm0 0" fill="#ffb64c"/><path d="m300 121v361h-32.699219l-42.300781-30h-120l-42.300781 30h-32.699219v-361h107.101562l27.898438 6 27.898438-6zm0 0" fill="#ff9100"/><path d="m300 121v361h-32.699219l-42.300781-30h-60v-325l27.898438-6zm0 0" fill="#ff641a"/><path d="m233.402344 208.597656c-7.203125 4.503906-16.503906 2.402344-21-4.199218l-47.402344-71.398438-47.402344 71.398438c-4.796875 6.902343-14.097656 8.703124-21 4.199218-6.898437-4.796875-8.699218-14.097656-4.199218-21l44.703124-66.597656h55.796876l44.703124 66.597656c4.5 6.902344 2.699219 16.203125-4.199218 21zm0 0" fill="#537983"/><path d="m233.402344 208.597656c-7.203125 4.503906-16.503906 2.402344-21-4.199218l-47.402344-71.398438v-12h27.898438l44.703124 66.597656c4.5 6.902344 2.699219 16.203125-4.199218 21zm0 0" fill="#3e5959"/><path d="m30 30h210v61h-210zm0 0" fill="#ff9100"/><path d="m270 30h212v61h-212zm0 0" fill="#f03800"/><path d="m330 121v180l15 30v31l-15 30v90h152v-361zm0 0" fill="#f03800"/><g fill="#cd0000"><path d="m437 181h-62c-8.289062 0-15-6.710938-15-15s6.710938-15 15-15h62c8.289062 0 15 6.710938 15 15s-6.710938 15-15 15zm0 0"/><path d="m437 241h-62c-8.289062 0-15-6.710938-15-15s6.710938-15 15-15h62c8.289062 0 15 6.710938 15 15s-6.710938 15-15 15zm0 0"/><path d="m390 346c0-24.8125-20.1875-45-45-45h-15v91h15c24.8125 0 45-21.1875 45-46zm0 0"/></g><path d="m270 226v60c0 8.398438-6.597656 15-15 15h-15v76c0 8.398438-6.597656 15-15 15h-120c-8.402344 0-15-6.601562-15-15v-76h-15c-8.402344 0-15-6.601562-15-15v-60c0-24.902344 20.097656-45 45-45h15l30 15h30l30-15h15c24.902344 0 45 20.097656 45 45zm0 0" fill="#faecd8"/><path d="m165 30h75v61h-75zm0 0" fill="#ff641a"/><path d="m270 226v60c0 8.398438-6.597656 15-15 15h-15v76c0 8.398438-6.597656 15-15 15h-60v-196h15l30-15h15c24.902344 0 45 20.097656 45 45zm0 0" fill="#f4d7af"/><path d="m210 181v45c0 24.898438-20.097656 45-45 45s-45-20.101562-45-45v-45zm0 0" fill="#f4d7af"/><path d="m210 181v45c0 24.898438-20.097656 45-45 45v-90zm0 0" fill="#dabba6"/><path d="m270 467c0 5.398438-1.199219 10.199219-2.699219 15h-42.300781v-15h-120v15h-42.300781c-1.5-4.800781-2.699219-9.601562-2.699219-15 0-24.902344 20.097656-45 45-45h120c24.902344 0 45 20.097656 45 45zm0 0" fill="#537983"/><path d="m270 467c0 5.398438-1.199219 10.199219-2.699219 15h-42.300781v-15h-60v-45h60c24.902344 0 45 20.097656 45 45zm0 0" fill="#3e5959"/><path d="m240 467c0 8.398438-6.597656 15-15 15h-120c-8.402344 0-15-6.601562-15-15 0-8.402344 6.597656-15 15-15h120c8.402344 0 15 6.597656 15 15zm0 0" fill="#3e5959"/><path d="m240 467c0 8.398438-6.597656 15-15 15h-60v-30h60c8.402344 0 15 6.597656 15 15zm0 0" fill="#293939"/></svg>