<svg id="Capa_1" enable-background="new 0 0 512 512" height="512" viewBox="0 0 512 512" width="512" xmlns="http://www.w3.org/2000/svg"><g><path d="m512 449.561h-62.439l12.766 54.711c1.056 4.526 5.091 7.728 9.738 7.728h29.935c5.523 0 10-4.477 10-10z" fill="#818181"/><path d="m449.561 449.561 6.313 27.057h56.126v-27.057z" fill="#595959"/><path d="m0 449.561h62.439l-12.766 54.711c-1.056 4.526-5.091 7.728-9.738 7.728h-29.935c-5.523 0-10-4.477-10-10z" fill="#818181"/><path d="m62.439 449.561-6.313 27.057h-56.126v-27.057z" fill="#595959"/><path d="m0 10v439.561h512v-439.561c0-5.523-4.477-10-10-10h-492c-5.523 0-10 4.477-10 10z" fill="#da8659"/><path d="m492.228 0v419.382c0 5.747-4.659 10.406-10.406 10.406h-481.822v19.772h512v-439.56c0-5.523-4.477-10-10-10z" fill="#c56e37"/><path d="m272.65 408.341v-156.91c0-5.523 4.477-10 10-10h188.13c5.523 0 10 4.477 10 10v156.911c0 5.523-4.477 10-10 10h-188.13c-5.522-.001-10-4.478-10-10.001z" fill="#818181"/><path d="m272.65 41.22v156.91c0 5.523 4.477 10 10 10h188.13c5.523 0 10-4.477 10-10v-156.91c0-5.523-4.477-10-10-10h-188.13c-5.522 0-10 4.477-10 10z" fill="#818181"/><g><g><path d="m376.736 346.607c0-17.856-14.475-32.331-32.331-32.331s-32.331 14.475-32.331 32.331v38.433h64.662z" fill="#b9ea6a"/><path d="m349.796 314.732c3.401 5.119 5.386 11.259 5.386 17.865v52.443h21.554v-38.433c0-16.018-11.652-29.307-26.94-31.875z" fill="#a1e42c"/><path d="m312.074 385.041h64.662v33.301h-64.662z" fill="#eff3f5"/><path d="m355.182 385.041h21.554v33.301h-21.554z" fill="#c9e2e7"/></g><g><path d="m441.357 346.607c0-17.856-14.475-32.331-32.331-32.331s-32.331 14.475-32.331 32.331v38.433h64.662z" fill="#b9ea6a"/><path d="m414.417 314.732c3.401 5.119 5.386 11.259 5.386 17.865v52.443h21.554v-38.433c0-16.018-11.652-29.307-26.94-31.875z" fill="#a1e42c"/><path d="m376.695 385.041h64.662v33.301h-64.662z" fill="#eff3f5"/><path d="m419.803 385.041h21.554v33.301h-21.554z" fill="#c9e2e7"/></g></g><path d="m239.35 408.341v-156.91c0-5.523-4.477-10-10-10h-188.13c-5.523 0-10 4.477-10 10v156.911c0 5.523 4.477 10 10 10h188.13c5.522-.001 10-4.478 10-10.001z" fill="#818181"/><path d="m239.35 41.22v156.91c0 5.523-4.477 10-10 10h-188.13c-5.523 0-10-4.477-10-10v-156.91c0-5.523 4.477-10 10-10h188.13c5.522 0 10 4.477 10 10z" fill="#818181"/><g><g><path d="m135.305 346.607c0-17.856-14.475-32.331-32.331-32.331s-32.331 14.475-32.331 32.331v38.433h64.662z" fill="#fbe77b"/><path d="m108.365 314.732c3.401 5.119 5.386 11.259 5.386 17.865v52.443h21.554v-38.433c0-16.018-11.652-29.307-26.94-31.875z" fill="#fcdd2e"/><path d="m70.643 385.041h64.662v33.301h-64.662z" fill="#eff3f5"/><path d="m113.751 385.041h21.554v33.301h-21.554z" fill="#c9e2e7"/></g><g><path d="m199.926 346.607c0-17.856-14.475-32.331-32.331-32.331s-32.331 14.475-32.331 32.331v38.433h64.662z" fill="#fbe77b"/><path d="m172.986 314.732c3.401 5.119 5.386 11.259 5.386 17.865v52.443h21.554v-38.433c0-16.018-11.651-29.307-26.94-31.875z" fill="#fcdd2e"/><path d="m135.264 385.041h64.662v33.301h-64.662z" fill="#eff3f5"/><path d="m178.372 385.041h21.554v33.301h-21.554z" fill="#c9e2e7"/></g></g><g><g><path d="m376.736 136.396c0-17.856-14.475-32.331-32.331-32.331s-32.331 14.475-32.331 32.331v38.433h64.662z" fill="#97e4f9"/><path d="m349.796 104.521c3.401 5.119 5.386 11.259 5.386 17.865v52.443h21.554v-38.433c0-16.018-11.652-29.307-26.94-31.875z" fill="#0acefa"/><path d="m312.074 174.829h64.662v33.301h-64.662z" fill="#eff3f5"/><path d="m355.182 174.829h21.554v33.301h-21.554z" fill="#c9e2e7"/></g><g><path d="m441.357 136.396c0-17.856-14.475-32.331-32.331-32.331s-32.331 14.475-32.331 32.331v38.433h64.662z" fill="#97e4f9"/><path d="m414.417 104.521c3.401 5.119 5.386 11.259 5.386 17.865v52.443h21.554v-38.433c0-16.018-11.652-29.307-26.94-31.875z" fill="#0acefa"/><path d="m376.695 174.829h64.662v33.301h-64.662z" fill="#eff3f5"/><path d="m419.803 174.829h21.554v33.301h-21.554z" fill="#c9e2e7"/></g></g><g><g><path d="m135.305 136.396c0-17.856-14.475-32.331-32.331-32.331s-32.331 14.475-32.331 32.331v38.433h64.662z" fill="#fb636f"/><path d="m108.365 104.521c3.401 5.119 5.386 11.259 5.386 17.865v52.443h21.554v-38.433c0-16.018-11.652-29.307-26.94-31.875z" fill="#fa4954"/><path d="m70.643 174.829h64.662v33.301h-64.662z" fill="#eff3f5"/><path d="m113.751 174.829h21.554v33.301h-21.554z" fill="#c9e2e7"/></g><g><path d="m199.926 136.396c0-17.856-14.475-32.331-32.331-32.331s-32.331 14.475-32.331 32.331v38.433h64.662z" fill="#fb636f"/><path d="m172.986 104.521c3.401 5.119 5.386 11.259 5.386 17.865v52.443h21.554v-38.433c0-16.018-11.651-29.307-26.94-31.875z" fill="#fa4954"/><path d="m135.264 174.829h64.662v33.301h-64.662z" fill="#eff3f5"/><path d="m178.372 174.829h21.554v33.301h-21.554z" fill="#c9e2e7"/></g></g></g></svg>