<svg id="Capa_1" enable-background="new 0 0 510 510" height="512" viewBox="0 0 510 510" width="512" xmlns="http://www.w3.org/2000/svg"><g><path d="m255 345 7.5 10 7.5-10v-120l-7.5-10-7.5 10z" fill="#cfe1f3"/><path d="m255 225-7.5-10-7.5 10v120l7.5 10 7.5-10z" fill="#f2fbff"/><path d="m255 165-25-10-35 10v60h60l10-30z" fill="#5c7199"/><path d="m255 225h60v-60l-30-10-30 10z" fill="#4d5680"/><path d="m255 105-42.5-10-47.5 10v60h90l10-30z" fill="#f2fbff"/><path d="m255 165h90v-60l-42-10-48 10z" fill="#cfe1f3"/><path d="m315 410 8.189 41.209 123.527 18.244c33.128 5.521 63.284-20.025 63.284-53.609v-25.844h-180z" fill="#b2c8f3"/><path d="m0 390v25.844c0 33.584 30.156 59.13 63.283 53.609l123.527-18.244 13.348-35.952-20.158-25.257z" fill="#b2c8f3"/><path d="m180 420c0 41.355 33.644 75 75 75l10-41.25-10-33.75-32.5-10z" fill="#f2fbff"/><path d="m255 495c41.355 0 75-33.645 75-75l-37.5-10-37.5 10z" fill="#cfe1f3"/><path d="m255 345c-7.424 0-66.539 0-75 0v30c50.224 11.329-5.887-1.328 44.333 10l30.667-10 10-13.667z" fill="#f36a3d"/><path d="m255 375 37.5 10c23.215-6.19 14.285-3.81 37.5-10v-30c-8.45 0-67.527 0-75 0z" fill="#ec4c36"/><path d="m255 375c-7.424 0-66.539 0-75 0v45h75l10-22.5z" fill="#f98845"/><path d="m255 420h75v-45c-8.45 0-67.527 0-75 0z" fill="#f36a3d"/><path d="m255 15h-210v30l115.5 10 94.5-10 10-15z" fill="#4d5680"/><path d="m255 15v30l121 10 89-10v-30z" fill="#3d3d66"/><path d="m255 45h-210v60h210l10-30z" fill="#5c7199"/><path d="m255 105h210v-60h-210z" fill="#4d5680"/></g></svg>